<?xml version="1.0"?>
<!-- Generated by SVGo -->
<svg width="1144" height="660"
     xmlns="http://www.w3.org/2000/svg"
     xmlns:xlink="http://www.w3.org/1999/xlink">
<rect x="0" y="0" width="1144" height="660" rx="5" ry="5" style="fill:#282d35" />
<circle cx="20" cy="20" r="7" style="fill:#ff5f58" />
<circle cx="43" cy="20" r="7" style="fill:#ffbd2e" />
<circle cx="66" cy="20" r="7" style="fill:#18c132" />
<g transform="translate(20,60)" >
<g style="font-family:Monaco,Consolas,Menlo,'Bitstream Vera Sans Mono','Powerline Symbols',monospace;font-size:20px">
<style type="text/css">
<![CDATA[
.a{fill:#e5e5e5}.b{fill:#00ffff}.c{fill:#ffff00}
]]>
</style>
<g>
<text x="0" y="25" class="b"  >▇</text>
<text x="24" y="25" class="b"  >Boys</text>
<text x="96" y="25" class="c"  >▇</text>
<text x="120" y="25" class="c"  >Girls</text>
<text x="0" y="100" class="a"  >Math</text>
<text x="84" y="100" class="a"  >:</text>
<text x="108" y="100" class="b"  >▇▇▇▇▇▇▇▇▇▇▇▇▇▇▇▇▇▇▇▇▇▇▇▇▇▇▇▇▇▇▇▇▇▇▇▇▇▇▇▇</text>
<text x="600" y="100" class="a"  >78</text>
<text x="108" y="125" class="c"  >▇▇▇▇▇▇▇▇▇▇▇▇▇▇▇▇▇▇▇▇▇▇▇▇▇▇▇▇▇▇▇▇▇▇▇▇▇▇▇▇▇▇</text>
<text x="624" y="125" class="a"  >82</text>
<text x="0" y="175" class="a"  >Reading:</text>
<text x="108" y="175" class="b"  >▇▇▇▇▇▇▇▇▇▇▇▇▇▇▇▇▇▇▇▇▇▇▇▇▇▇▇▇▇▇▇▇▇▇▇▇▇▇▇▇▇▇▇</text>
<text x="636" y="175" class="a"  >84</text>
<text x="108" y="200" class="c"  >▇▇▇▇▇▇▇▇▇▇▇▇▇▇▇▇▇▇▇▇▇▇▇▇▇▇▇▇▇▇▇▇▇▇▇▇▇▇▇▇▇</text>
<text x="612" y="200" class="a"  >79</text>
<text x="0" y="250" class="a"  >Science:</text>
<text x="108" y="250" class="b"  >▇▇▇▇▇▇▇▇▇▇▇▇▇▇▇▇▇▇▇▇▇▇▇▇▇▇▇▇▇▇▇▇▇▇▇▇▇▇▇▇▇▇</text>
<text x="624" y="250" class="a"  >81</text>
<text x="108" y="275" class="c"  >▇▇▇▇▇▇▇▇▇▇▇▇▇▇▇▇▇▇▇▇▇▇▇▇▇▇▇▇▇▇▇▇▇▇▇▇▇▇▇▇</text>
<text x="600" y="275" class="a"  >77</text>
<text x="0" y="325" class="a"  >Art</text>
<text x="84" y="325" class="a"  >:</text>
<text x="108" y="325" class="b"  >▇▇▇▇▇▇▇▇▇▇▇▇▇▇▇▇▇▇▇▇▇▇▇▇▇▇▇▇▇▇▇▇▇▇▇▇▇▇▇▇▇▇▇▇▇▇</text>
<text x="672" y="325" class="a"  >89</text>
<text x="108" y="350" class="c"  >▇▇▇▇▇▇▇▇▇▇▇▇▇▇▇▇▇▇▇▇▇▇▇▇▇▇▇▇▇▇▇▇▇</text>
<text x="516" y="350" class="a"  >65</text>
<text x="0" y="400" class="a"  >PE</text>
<text x="84" y="400" class="a"  >:</text>
<text x="108" y="400" class="b"  >▇▇▇▇▇▇▇▇▇▇▇▇▇▇▇▇▇▇▇▇▇▇▇▇▇▇▇▇▇▇▇▇▇▇▇▇▇▇▇▇▇▇▇</text>
<text x="636" y="400" class="a"  >83</text>
<text x="108" y="425" class="c"  >▇▇▇▇▇▇▇▇▇▇▇▇▇▇▇▇▇▇▇▇▇▇▇▇▇▇▇▇▇▇▇▇▇▇▇▇▇▇▇▇▇▇▇▇▇▇▇▇▇▇</text>
<text x="720" y="425" class="a"  >96</text>
<text x="0" y="475" class="a"  >Music</text>
<text x="84" y="475" class="a"  >:</text>
<text x="108" y="475" class="b"  >▇▇▇▇▇▇▇▇▇▇▇▇▇▇▇▇▇▇▇▇▇▇▇▇▇▇▇▇▇▇▇▇▇▇▇▇</text>
<text x="552" y="475" class="a"  >71</text>
<text x="108" y="500" class="c"  >▇▇▇▇▇▇▇▇▇▇▇▇▇▇▇▇▇▇▇▇▇▇▇▇▇▇▇▇▇▇▇▇▇▇▇▇▇▇▇▇▇▇▇▇▇</text>
<text x="660" y="500" class="a"  >88</text>
</g>
</g>
</g>
</svg>
