<?xml version="1.0"?>
<!-- Generated by SVGo -->
<svg width="1024" height="460"
     xmlns="http://www.w3.org/2000/svg"
     xmlns:xlink="http://www.w3.org/1999/xlink">
<rect x="0" y="0" width="1024" height="460" rx="5" ry="5" style="fill:#282d35" />
<circle cx="20" cy="20" r="7" style="fill:#ff5f58" />
<circle cx="43" cy="20" r="7" style="fill:#ffbd2e" />
<circle cx="66" cy="20" r="7" style="fill:#18c132" />
<g transform="translate(20,60)" >
<g style="font-family:Monaco,Consolas,Menlo,'Bitstream Vera Sans Mono','Powerline Symbols',monospace;font-size:20px">
<style type="text/css">
<![CDATA[
.a{fill:#e5e5e5}.b{fill:#00ff00}.c{fill:#ff00ff}
]]>
</style>
<g>
<text x="0" y="25" class="a"  >2007:</text>
<text x="72" y="25" class="b"  >▇▇▇▇▇▇▇▇▇▇▇▇▇▇▇▇▇▇</text>
<text x="288" y="25" class="c"  >▇▇▇▇▇▇▇▇▇▇▇▇▇▇▇▇▇▇</text>
<text x="516" y="25" class="a"  >373.84</text>
<text x="0" y="50" class="a"  >2008:</text>
<text x="72" y="50" class="b"  >▇▇▇▇▇▇▇▇▇▇▇▇▇▇▇▇▇▇▇▇▇▇</text>
<text x="336" y="50" class="a"  >▏</text>
<text x="360" y="50" class="a"  >236.23</text>
<text x="0" y="75" class="a"  >2009:</text>
<text x="72" y="75" class="b"  >▇</text>
<text x="84" y="75" class="c"  >▇▇▇▇▇</text>
<text x="156" y="75" class="a"  >69.53</text>
<text x="0" y="100" class="a"  >2010:</text>
<text x="72" y="100" class="b"  >▇▇▇▇</text>
<text x="120" y="100" class="a"  >▏</text>
<text x="144" y="100" class="a"  >57.21</text>
<text x="0" y="125" class="a"  >2011:</text>
<text x="72" y="125" class="b"  >▇▇▇▇▇▇▇▇▇▇▇▇▇▇▇▇▇▇▇▇▇▇▇▇▇▇▇▇▇▇▇▇▇▇▇▇▇▇▇▇▇▇▇▇▇▇▇▇▇▇</text>
<text x="672" y="125" class="c"  >▇</text>
<text x="696" y="125" class="a"  >519.42</text>
<text x="0" y="150" class="a"  >2012:</text>
<text x="72" y="150" class="b"  >▇▇▇▇▇▇▇▇▇▇▇▇▇▇▇▇▇▇▇▇</text>
<text x="312" y="150" class="c"  >▇</text>
<text x="336" y="150" class="a"  >232.25</text>
<text x="0" y="175" class="a"  >2014:</text>
<text x="72" y="175" class="b"  >▇▇</text>
<text x="96" y="175" class="c"  >▇</text>
<text x="120" y="175" class="a"  >50.00</text>
</g>
</g>
</g>
</svg>
