<?xml version="1.0"?>
<!-- Generated by SVGo -->
<svg width="1024" height="460"
     xmlns="http://www.w3.org/2000/svg"
     xmlns:xlink="http://www.w3.org/1999/xlink">
<rect x="0" y="0" width="1024" height="460" rx="5" ry="5" style="fill:#282d35" />
<circle cx="20" cy="20" r="7" style="fill:#ff5f58" />
<circle cx="43" cy="20" r="7" style="fill:#ffbd2e" />
<circle cx="66" cy="20" r="7" style="fill:#18c132" />
<g transform="translate(20,60)" >
<g style="font-family:Monaco,Consolas,Menlo,'Bitstream Vera Sans Mono','Powerline Symbols',monospace;font-size:20px">
<style type="text/css">
<![CDATA[
.a{fill:#e5e5e5}.b{fill:#ff0000}
]]>
</style>
<g>
<text x="60" y="25" class="a"  >Jun</text>
<text x="108" y="25" class="a"  >Jul</text>
<text x="156" y="25" class="a"  >Aug</text>
<text x="204" y="25" class="a"  >Sep</text>
<text x="252" y="25" class="a"  >Oct</text>
<text x="300" y="25" class="a"  >Nov</text>
<text x="348" y="25" class="a"  >Dec</text>
<text x="396" y="25" class="a"  >Jan</text>
<text x="444" y="25" class="a"  >Feb</text>
<text x="492" y="25" class="a"  >Mar</text>
<text x="540" y="25" class="a"  >Apr</text>
<text x="588" y="25" class="a"  >May</text>
<text x="636" y="25" class="a"  >Jun</text>
<text x="0" y="50" class="a"  >Mon:</text>
<text x="96" y="50" class="b"  >▒</text>
<text x="216" y="50" class="b"  >▒▒▒</text>
<text x="492" y="50" class="b"  >▒</text>
<text x="624" y="50" class="b"  >▒</text>
<text x="660" y="50" class="b"  >▒</text>
<text x="0" y="75" class="a"  >Tue:</text>
<text x="132" y="75" class="b"  >▒</text>
<text x="444" y="75" class="b"  >▒</text>
<text x="0" y="100" class="a"  >Wed:</text>
<text x="96" y="100" class="b"  >▒</text>
<text x="120" y="100" class="b"  >▒</text>
<text x="180" y="100" class="b"  >▒▒</text>
<text x="252" y="100" class="b"  >▒</text>
<text x="276" y="100" class="b"  >▒</text>
<text x="492" y="100" class="b"  >▒</text>
<text x="612" y="100" class="b"  >▒</text>
<text x="660" y="100" class="b"  >▒▒</text>
<text x="0" y="125" class="a"  >Thu:</text>
<text x="72" y="125" class="b"  >▒</text>
<text x="120" y="125" class="b"  >▒▒</text>
<text x="156" y="125" class="b"  >▒▒</text>
<text x="204" y="125" class="b"  >▒▓</text>
<text x="0" y="150" class="a"  >Fri:</text>
<text x="96" y="150" class="b"  >▒</text>
<text x="144" y="150" class="b"  >▒</text>
<text x="180" y="150" class="b"  >▒</text>
<text x="240" y="150" class="b"  >▒</text>
<text x="288" y="150" class="b"  >▒</text>
<text x="0" y="175" class="a"  >Sat:</text>
<text x="60" y="175" class="b"  >▒▒░</text>
<text x="120" y="175" class="b"  >▒</text>
<text x="192" y="175" class="b"  >▓</text>
<text x="264" y="175" class="b"  >█</text>
<text x="660" y="175" class="b"  >▒</text>
<text x="0" y="200" class="a"  >Sun:</text>
<text x="156" y="200" class="b"  >▒</text>
<text x="180" y="200" class="b"  >▒</text>
<text x="252" y="200" class="b"  >▒</text>
</g>
</g>
</g>
</svg>
